<svg xmlns="http://www.w3.org/2000/svg" width="463" height="271" fill="none"><path stroke="#000" stroke-linecap="round" stroke-linejoin="round" stroke-width="3.174" d="M82.9 266.3c2.6-3.3 10.9-8.2 11.7-1.5"/><path stroke="#000" stroke-linecap="round" stroke-linejoin="round" stroke-width="3.175" d="M302.9 264.6c21.5-.2 43-.4 48.9-.5m-53.5 5.1c.1-1.2.2-2.5.1-3.7"/><path stroke="#000" stroke-linecap="round" stroke-linejoin="round" stroke-width="3.174" d="M71.1 115c3.1-1.2 6.4-1.3 7.7 2"/><path stroke="#000" stroke-linecap="round" stroke-linejoin="round" stroke-width="3.153" d="M31.5 130.1c.4 2.9.6 5.2.8 8.1 2.6-1.7 4.4-4.5 6.7-6.6m-30.5 5.8c3.9 3.6 10.3 0 12-4.3"/><path stroke="#000" stroke-linecap="round" stroke-linejoin="round" stroke-width="2.645" d="M193.2 187.4c3 0 6.6 1.7 4.6 5.1-1 1.6-3.3 1.8-5.6 1.6m.4 6.3c1.9 1.5 2.4 4.9.7 6.6-2.3 2.3-4.6 1-6.7-.7M172.1 175c-.6-2-1.8-3.8-4.3-3-2.3.7-2.5 3.5-2.5 5.8m21.8-1.2c4.2-2.4 9.7 1.1 6.5 6.9m-18.2-9.6c1.3-2.2 3.5-4.2 5.6-4.1 3 .2 3.1 3.3 2.7 5.8"/><path stroke="#000" stroke-linecap="round" stroke-linejoin="round" stroke-width="3.174" d="M229 250.6c-10.3-5.9-24.1-5.3-36.7-5.7-10.1-.3-21.5-1.7-31.4.3v.8c-.1 3.5 0 7.2.3 10.9m5.7 6.6c4.7-.3 9.3-.1 14.1-.1 0-1 .2-4.5.2-4.5s11.9-2.1 14.5 5.4c10.6.2 20.8-1 31.5-1.1m-68-149.1c3.3 6.1 10.4 5.5 13-.8m56.9-23.1c5 6.5 1.7 15.3-5 18.9m-32.2.8c2.7 4.4 6.2 6.8 12.6 5.4m-104.4 68.2c8.8 2.2 19.7 21.4 25.8 31.6 4.7 7.7 10.7 15.6 12.2 24.8 5.8-.5 11.7-1.5 17.5-1.6"/><path stroke="#000" stroke-linecap="round" stroke-linejoin="round" stroke-width="3.174" d="M148.1 75.8c2.2 3.1 4.1 6.6 5.9 10.8 2.6 5.9 15.3 29.8.5 28.4-.2 13.2.4 23.3-2.9 30.3m-17.2-81.1c1.1.5 2.2 1.1 3.2 1.7"/><path stroke="#000" stroke-linecap="round" stroke-linejoin="round" stroke-width="3.174" d="M144.1 69.3c.5 5 5.7 8.9 11.6 6.6m-15.8-19.3c-2.7 5.4-2.5 10.2-2 16 6.3-2.6 10.5-7.7 14.3-13M12.1 110.2c2.9 4.2 5.3 8.9 8 13.4 0-5.6-.2-11.2-1.1-16.7m19.5-20.5c5.8 3.1 13.1.1 14.8-6.2m19.6-11.3c-5.7 1.4-11 9-7.7 14.5M52.6 217.6c4.6-7.7 9-17.6 6.1-25.1 2.4 6.3 4.3 13.1 4.8 20.4"/><path stroke="#000" stroke-linecap="round" stroke-linejoin="round" stroke-width="3.174" d="M42.4 237.6c.2-1.4.5-2.8.9-4.1 2.5-8.4 7-16 8.5-24.7-1 5.5 2 12.7 2.1 18.4.1 2.8.5 6.6.2 10.5"/><path stroke="#000" stroke-linecap="round" stroke-linejoin="round" stroke-width="3.174" d="M54 238c1.5-12 9.4-27.1 16.3-33.7-4.4 4.2-3.3 13.4-3.5 21.4m-30.9-16.9c4.6-4.8 13.8-8 18.1-8.9-6.4 1.4-8.7 19.4-7 23.9M159.5 50c-.7 15.1 25.7 18.1 28.9 4.5m-47.8 1c1.9 3.8 7.8 4 10.6 1.1M50.9 68c1.9 1.2 4.1 2.1 5.9 2.8.3-3.2.4-6.7.1-9.9m28.5 1.4c3-3.5 7.9-6.4 12.8-8.3m-58.1 89.8c-1.2-18.6-4.5-47.1-30-44.8m2.6-11.5c-1.3-.1-1.9 0-3.1 0M49 120.6c.5-10.7-4.6-18.3-11.8-24.1M51 61.8c-.3 16.4-14.2 26-28.8 13.2m78.4 144.8c-.7-14.6-1.8-32.2-.9-40.4 12.1-3.3 29.2 14 35.8 22.5 8.7 11.4 20.4 28.4 21.3 42.9 0 0 3.3.2 4.7.2m25.4-23.2c3.6 8.3 7.1 15.6 12.2 23.5M149.5 167c4.7 2.6 9 5.5 12.5 9.6.7.8 1.3 1.4 1.9 2.1"/><path stroke="#000" stroke-linecap="round" stroke-linejoin="round" stroke-width="3.174" d="M173.5 141c4.1 3.7 7.3 8 8.4 11.8 7.4 25.6-32 13.6-42.2 11.9-23.1-4-55.8 9-66.3 30.9"/><path stroke="#000" stroke-linecap="round" stroke-linejoin="round" stroke-width="3.174" d="M98.9 142.3c4.2 10.5 16.9 3.1 24.6 1.8 10.7-1.8 22.9-1.6 32.6 4-1.3-.7-3-2.7-3-2.7s1.7-10.2 2.2-13c3.4.2 6.3 1 9.8 2.9m.1 8.8c.6 1.5 1 3.2.9 4.9"/><path stroke="#000" stroke-linecap="round" stroke-linejoin="round" stroke-width="3.174" d="M160.1 138.5c1.4.7 2.5 1.7 3.5 2.8m-18.9-55.6c-3.6 6.9-15.4 8.2-21.7 4.9m-83.8 71.2c-.5 7.6-.9 18.9-2.7 31.2M70 133.4c-1.6-12 1.2-24.9 6.6-35.4 2.4-4.7 9-12.3 15-10.3m-28.9-.3c4.8-7.4 10.7-14 17.3-19.3m-31.3 56.8c1-8.5 3.5-17.2 7.3-25.4"/><path stroke="#000" stroke-linecap="round" stroke-linejoin="round" stroke-width="3.174" d="M82.4 72.7c-3.5-8.6-10-13.2-15.1-19.7m5.9-4.3c3.8 4.3 8.5 8.8 11 14.1"/><path stroke="#000" stroke-linecap="round" stroke-linejoin="round" stroke-width="3.174" d="M67.9 48.2c-.2 16.5-32.2 16.9-34.6 2.7m57.3-4.4c-6.5 3.2-13.5 4-21 .3m29 4.8c-.2 13.2 9.7 16.9 24.7 15.6 16.1-1.4 21.5-14.7 17.5-29.1"/><path stroke="#000" stroke-linecap="round" stroke-linejoin="round" stroke-width="3.174" d="M82.6 24.4c-3.9 10-2.2 22.5 9.2 22.2m-64 .7c-.6 3.5-.3 7.2-.3 10.8 3.5-2.3 6.2-6.8 7.3-11.1m-.5-2.9c1 3.2 2.1 6.2 4.4 8.9 3.9-3.7 3.2-10.3 2.4-15.4"/><path stroke="#000" stroke-linecap="round" stroke-linejoin="round" stroke-width="3.174" d="M19 44c5.8 7 18.5.5 20.9-7.6m-25.4-.3c.1 3.9-.1 7.7.1 11.5 4.1-3.1 8.1-7.5 10.3-12.1"/><path stroke="#000" stroke-linecap="round" stroke-linejoin="round" stroke-width="3.174" d="M36.8 27.6c.6 5.2 3.2 9.7 7 13.2 2.6-4.8 2.6-11.3 2.3-16.8"/><path stroke="#000" stroke-linecap="round" stroke-linejoin="round" stroke-width="3.174" d="M46.3 17.5c-.5 4.4-.6 9 .9 13.3 2.3-2.6 4.1-5.7 5.5-8.9m-21.4-2.7c.2 4.5.9 9.2 3.4 12.8 2.6-5 2.8-10.8 3.3-16.3m54.4 17.2c-7 10.7 3.5 24.4 15 16.5M71.1 17.5C75 30.9 89.5 23.4 95.2 15"/><path stroke="#000" stroke-linecap="round" stroke-linejoin="round" stroke-width="3.174" d="M75.4 12.7c-2 4.6-9.7 9.2-14.9 2.8M91.1 11c1 4.5 7.7 5.7 11.3 2.9m52.4 10.4c-3.2 10.9-21.4 21-29.1 6.7M57.5 47.3c5.1 4.3 13.5.3 15.3-5.4m33 1.9c-2 4.8 2.6 6.9 6.7 6.1M81 9c4.3 3.4 11.2 2.6 14.3-2.3M70.5 88.4c-4.3 4.6-6 10.3-6.8 16.4m-1.4 17c-.1-4.9.5-7.3 2.6-11.5 1.4-2.8 3.8-4.1 3.3-7.6m2.7-6.1c.3-1.5 1.1-3 2.2-4.1m1-3.6c2.4-3.8 5.2-6.9 5-11.9"/><path stroke="#000" stroke-linecap="round" stroke-linejoin="round" stroke-width="3.174" d="M151 19.1c.9 6.5 9.6 6.3 14.2 4.3m-35.5-1.1c-.9 6.1-7 14.8-14.3 9.4M50.2 43.5c1.2 11 9.8 2.9 9.2-5.1"/><path stroke="#000" stroke-linecap="round" stroke-linejoin="round" stroke-width="3.174" d="M125.7 15.3c-.5 9.1 10.3 10.2 9.8-.1m31.2 2.1c-.8 4.2-1.3 8.5-1.5 12.8 3.1-1.2 6.6-4.1 9.4-6.9"/><path stroke="#000" stroke-linecap="round" stroke-linejoin="round" stroke-width="3.174" d="M115.2 8.3c-.3 9.1 18.5 10.4 15.4-3.4m-46.9 75c3-3.4 7.2-8.9 11.9-10.1m-10.1-1c3.2-4.7 9-5.4 12.6-9.4m5 6.7c-1.4.3-2.6 1-3.6 2.1m-39.6 40.2c-5.3 6.9-1 15.2-3.1 22.7m6.5-3.3c-.1 2.1.3 4.2 1 6.1m7.1-50.1c.8-1.4 1.8-2.9 2.7-4.1m18.9-1c4.1-6.1 12.3-9.2 19.1-10.9m-88.4 3.3c-1.2 4.5-4.9 7.5-10.3 6.7m4.9-17.4c1.8 4.4 5.4 9.9 9.5 12.6.9-3.4 1.1-6.6.9-9.8"/><path stroke="#000" stroke-linecap="round" stroke-linejoin="round" stroke-width="3.174" d="M11.5 53.8c.9 2.1 3.1 6.1 4.8 8.7h.5c2.6-3.1 4.3-6.7 5.3-10.7m-9.9-38.5c-.2 2.4 3.4 9.4 6.3 12.1 1.1-2.7 1.7-5.9 2-9.1"/><path stroke="#000" stroke-linecap="round" stroke-linejoin="round" stroke-width="3.174" d="M17.5 4.8c-2.4 12.9 11.9 19 18.8 10.1m28.1-7.2c-2.8 9.6-14.8 13.5-22.7 6.7m14 19.4c.5 4.3 5.3 5.7 8.7 3.2m51.3-13c-1 4.9-.4 9.1-2.2 13.4-1.9-3.1-4.4-5.7-7-8.2"/><path stroke="#000" stroke-linecap="round" stroke-linejoin="round" stroke-width="3.174" d="M109.9 19.1c1 1.3 3.8 4.4 6.1 5.3.9-2.5 1.1-5.3 1.2-8m34.4 30.2c.1 5.8.3 11.7.3 17.5 1.8-6.8 5.5-11 9.2-17.8"/><path stroke="#000" stroke-linecap="round" stroke-linejoin="round" stroke-width="3.174" d="M148.1 38.1c-1.1 4.1-1.6 8.9-1.7 13.2 4.9-3.6 8.7-8.4 11.7-13.5m4.6 1.1c-7.7 9.2 6.5 13.1 11.1 3.6m25-2.9c2.1 2.7 4.4 7.3 6.3 10.2 1.5-3.2 3.1-6.5 4.3-9.8"/><path stroke="#000" stroke-linecap="round" stroke-linejoin="round" stroke-width="3.174" d="M179.7 37.3c3.2 9 23.3 4.6 24.8-5.3m-28.7-17.3c-6.7 12.7 8.2 14.1 15.7 7.5m-77.9 21.6c-.9 2.9-2.8 10.3 1.8 11.1 5 .9 4.3-8.7 3.1-11.4m-11.7-19.8c.1 3.3.1 10.2-3.7 10.5-2.7.2-4.8-3.9-5.3-6m49-19.6c-1.4 3.4-1.4 9.6-.9 13.7 4.8-1.4 8.2-7.5 11-11.6m-21.2.2c-2 3.4.7 7.4 4.3 4.9m-37-9.6c-1.6 5.1.5 11.5.1 16.9 3.7-3.9 6.4-9 7.2-14.4"/><path stroke="#000" stroke-linecap="round" stroke-linejoin="round" stroke-width="3.174" d="M106.5 1.7c.4 10.6 12.2 7.8 15.4.3M71.7 6.2c4.8 10.9 8 8.5 10.5-1.9M63.7 30.2c1.1 2.3 1.5 5.6 2.8 8 2.9-1.9 4-6.5 5.6-9.6M32 7.4c-1 12.9 15.7 7.2 18.9-.6M192 17.1c-2.5 4.4.9 9.8 7.2 8.5m-14.6 6.9c-5 2.9-7.2 8.7-10.3 13.2-.9-3.6-.6-7.6-1.5-11.2M28.9 100.6c2.7.8 6.3 5.6 7.7 7.9m3.8 4.4c4.2 5.2 3.9 14.4 6.5 20.7m-1.1 8c.5 5 1 10.1 0 15.1m5.5-24.5c.9 7.1 1.8 14.1 2.3 21.2.1 2.1 1.2 12.1-4 7.6m8.8-25.3c-.3 3.5-.8 8 .6 11.3m.3 5.1c.3 4.9-1.4 16.5 3.9 19.1m1.5-29.9c.6 6.4 1.1 14.1.3 20.5m-19.5 2.3c-.7 6 3.7 10.8-2.6 15m10-9.9c.3 5.1 6.3 15.1.8 18.5m-1 5.8c-4.4.4-7.9-3.4-6.6-7.7 1-3.3 4.8-5.8 4-.6M183 47c1.6 2.6 2.4 6.3 5.1 8 2.1-2.3 4.4-4.6 5.7-7.4M9.3 159.9c-5.2-6.2-.1-18.1 5.6-11.8-3.3-6.7 5.6-8.3 7.7-1.6-1.6-5.1 12.6-12.7 13.1-.6 4.2-6.5 9.2 1.7 8.5 6.4-.6 4.1-4.2 8.4-7.5 11.5"/><path stroke="#000" stroke-linecap="round" stroke-linejoin="round" stroke-width="3.174" d="M35.5 170.9c1.4-3.6 2.1-7 0-9.9-2.4-3.4-7.1-3.7-8.2 1-1.4-5.3-7.7-5.2-8.5.4-1.8-4.6-6.5-6.1-9.7-1.8-2.7 3.5-1 7.7 1.3 11.2"/><path stroke="#000" stroke-linecap="round" stroke-linejoin="round" stroke-width="3.174" d="M22.6 170.9c3.7-3.4 7.9-3.8 11.8-.3 4.2 3.9 4.1 8.9 2.7 13.9m-25.4 2.4c-11.7-10 2.9-21.7 7.9-16.3"/><path stroke="#000" stroke-linecap="round" stroke-linejoin="round" stroke-width="3.174" d="M9.9 190.8c.9-4.8 6-8.2 8.4-1.5.8-7.6 11.3-8.9 9.6-2.5 1.1-4.2 6.2-8.5 8.8-2.8 2.3 5.2-3.1 13.3-5.7 17.6m-9.4-1.6c-3.7-4.2-9.8-7.7-13.9-9.8.9 2.1 3.3 9.1 5.4 15"/><path stroke="#000" stroke-linecap="round" stroke-linejoin="round" stroke-width="3.174" d="M21.6 211.8c.1-4.5 0-13.5.7-19.9 3 5.1 4.9 12.9 5.2 19.8"/><path stroke="#000" stroke-linecap="round" stroke-linejoin="round" stroke-width="3.174" d="M26.5 218.3c1.3-10.4 5.1-21.2 13.7-27.2-3.5 9.4-5.4 18.9-5.4 28.9"/><path stroke="#000" stroke-linecap="round" stroke-linejoin="round" stroke-width="3.174" d="M29.2 226.9c-2-12.6-15.8-23.6-27.2-26.2 7.2 9.7 12.3 17.4 13.8 29.6m10.6 6.2c1.2-9.3 8.5-18.5 16.1-22.9-2.5 9.7-8.4 19.8-7.7 30.1"/><path stroke="#000" stroke-linecap="round" stroke-linejoin="round" stroke-width="3.174" d="M28.8 244c-1-5.4-4.2-12.1-7.6-14.8.9 4.4 1.2 8.7 1.1 11.6"/><path stroke="#000" stroke-linecap="round" stroke-linejoin="round" stroke-width="3.174" d="M23.5 250.3c2.6-10.2-9.4-21.9-15.8-28.4.8 7.6 3.9 14.8 5.6 22.4"/><path stroke="#000" stroke-linecap="round" stroke-linejoin="round" stroke-width="3.174" d="M20.3 259.1c1.6-6.4 4.9-13.2 10.4-16.8-.1 3.1-.2 6.2-.2 9.3M18.6 151.1c.6-4.3 7-7.2 8.3-1.4M15.1 175c3.1-6.3 10.9-5.8 11.4 1.7"/><path stroke="#000" stroke-linecap="round" stroke-linejoin="round" stroke-width="3.174" d="M29.7 263.6c-3-10.8 6.1-21.9 14.5-27.3 0 7.1-1 13.2-.2 20.3m5-7.1c-2.4-4.2-1-11.3 4.5-11.2 5.8.1 9.4 7.8 6.3 12.7m5.9-41.3c.8-6.5 3.5-12.9 7.3-16.5-3.3 9.1.5 15 3.3 21.3m-3.5 8.4c-1.9 6.6-.6 11.4 1.1 17.2-1.7-2.3-3.5.2-4 2m-6.4 9.9c0-8.6-1.2-18.7 3.2-26 1.4-2.4 4.5-4.5 6.5-6.9"/><path stroke="#000" stroke-linecap="round" stroke-linejoin="round" stroke-width="3.174" d="M77.1 230.3c-13.5-12.5 8.2-25.1 14.8-17.1"/><path stroke="#000" stroke-linecap="round" stroke-linejoin="round" stroke-width="3.174" d="M81.9 216.8c2.9.3 4.3 3 3.4 6m2.1 23.7c4-14.3 2.6-30.8 7.9-44.8 1.7 8 5 15.8 6.5 23.6 1 5.4 2.5 17.5 0 22"/><path stroke="#000" stroke-linecap="round" stroke-linejoin="round" stroke-width="3.174" d="M77.8 261.5c1.3-8.8 4.2-18.7 3.7-27.9 4.6 9.4 8.5 17.8 8.6 28.2m3.6-6.5c-1.1-7.5.2-13.9.7-21.2 4.7 11.2 7.6 18.1 7.6 30.5m-32.4-22.5c2.3-3.1 7.1-2.7 7 3.6m-6.2-189c-3.6 2.7-5 10.6-2.1 14.1M8.6 30.3c.6 11.6 14.2 3 8-1.1M5.8 51c2.2.7 4.3 2 6.7 1.9.2-2.4-.2-5.1-1-7.3M9.3 63c2.1 1.5 4 4.2 6.2 6m43.4-46.7c.5 1.1.8 2.5 1 3.8m-27 48.2c2.1-.3 3.4-1.8 3.4-4m6.4.8c1.2-1.2 2-3.6 1.4-5.5m-8.4-4.7c.8 1.9.4 3.5-1.3 4.8m10.5-14.6c-.6 2.4.9 4 3.4 4.2m8-1.1c1.3.6 2.5.3 3.2-1M95.8 39c-.5 1.4-.2 2.7.8 3.8m-68-2.3c1.8.4 3.2-.5 3.6-2.4m73.3 19.5c.5 1.4 1.5 2.2 2.9 2.4m50.1 6.8c-8.9 11.7 6.1 21 7.1 3m-1.3-4.1c2.2 5.1 3.9 10.6 6.5 15.5 1.3-3.2 3.2-9.5 3.2-9.5M50.9 75.8c-1 4.8 6 5.3 8.3 2.1m17 20.7c-.8 7 5.8 8 11.2 7.7"/><path stroke="#000" stroke-linecap="round" stroke-linejoin="round" stroke-width="3.174" d="M87.9 100.8c-1.2 3.4-1.4 8.1 2.6 9.5m80.7-42.2c.7 5.2 7.8 3.9 10.9 1.7m10.6 1c-1.2 6.5-2.2 17.3-1.4 25.5 5.7-4.8 9.3-15.1 13-21.8m-1.5-10.8c.9 9.1 16 11.1 22 5.4"/><path stroke="#000" stroke-linecap="round" stroke-linejoin="round" stroke-width="3.174" d="M182.3 76.2c-14.7 14.4 5.9 18.7 8.8 9.3m10.9-5.8c6.8 4 13.3 1.3 15-6.4m-8.9-15.8c-2.1 5.6-9.6 9.5-12.7 2m12.3-7.6c-1.2 2.9.5 5.7 3.1 7.1m6-2.1c1.1 2.1 3.5 2.7 5.8 1.8m-33.7 8.9c1.3 2 3.5 2.6 6 2.1M154.8 7.9c.9 2.9 3.8 4.3 6.6 3.1M15.8 118.8c-1.8 4.8-5.9 9.9-11.4 7.3m9.8 2.2c-.4 6 6.6 5.1 10.7 2.3m3.8-2.3c2.7 1.4 6.8.7 9.2-1.1"/><path stroke="#000" stroke-linecap="round" stroke-linejoin="round" stroke-width="3.174" d="M24.9 113.9c0 6.9-.6 14.2.4 21 2.3-3.9 3.7-8.7 4.9-13.1m21-25.8c5.1 10.1 14-4.6 10.9-11.4m-9.6 7.5c-1.1 1.1-2.8 3.8-3.6 5.8-.6-1-1.5-2.1-1.8-3.3m159 125.9c.8.7 1.9 1 3.4.6 4.4-1.3 4.3-7.9-.4-8.9-5.1-1-5.8 6-3 8.3Zm11.5 11.8c.4-.1.8-.3 1.1-.7 2.6-2.4-.3-8.6-4-5.9-3.9 2.8-.2 7.6 2.9 6.6Zm-17.3-9.8c-1.3 5-5.9 10.2.5 13.4m-36.4 8.3c.3-6-1.3-10.8-4.8-15.7m-74.7-80c4.3.8 9 0 13.1-2.2m-26.5 4.3c.6 2.8 2.5 4.9 5.1 6m-5.8 4.7c1.3 3.6 4.8 5.8 8.4 7m5.4-11.3c5.4 6.1 14.3-.7 21.2-.6m25.6 17.7c7 5.9 7.2 22.4 15.9 25.3m3 4.8c3.7 2.8 3.9 8.5 5.4 12.8m-10.9-29.7c2.6 7.3 10.7 11.2 12.4 18.7m5.2 8c-.5 5.4 2.1 11.5 5.7 15.5m6.3-3.6c3.5 5.3 5.1 11.3 5.1 17.7M165.4 92c3 4.1 10.6.5 12.1-3.9M97.8 84c2.2 1.9 2.5 5.2 1.1 7.9"/><path stroke="#000" stroke-linecap="round" stroke-linejoin="round" stroke-width="3.174" d="M68.8 140.3c-2.4-13 13.7-9.4 16.3-.3 1.3 4.5.5 9.8-4.1 12.1m-7-30.4c2-5.8 12.9-7.2 16.2-2m.7 1.2c-2.9-.3-6.2.6-7.4 3.5m20.4 13c-2 4.1-6.6 4.8-10.7 3.9"/><path stroke="#000" stroke-linecap="round" stroke-linejoin="round" stroke-width="3.174" d="M75.1 136.4c1.2-.3 2.2 0 3.1.8m89.3-51.3c-1.8 3.4-3.4 7-4.8 10.7-1-3.4-1.2-7.2-2.4-10.7m13.5 18.5c.8 6.1 6.4 8.9 11.8 7.4m9.4-9.7c-2.5 6.3-6.4 12.3-8.3 18.8-.6-5.2-1.3-10.7-1.6-16m-98 61.6c4.3 1.2 7.8-1.4 11.3-3.5m-32.2 11.9c2.4 1 4.2 3.9 1 6.1"/><path stroke="#000" stroke-linecap="round" stroke-linejoin="round" stroke-width="3.174" d="M70.6 170.9c7.2 9.2 1.4 11.7-3.6 19M61 177c-.5 2.7-.3 5.4.6 7.9m18.8-11.3c.8 1.7 2.3 2.2 4.2 1.5m27-20.5c4.9 1.9 22.5-9.2 23.8 1.2m-32.6 7c7.6.3 17.3-6.3 25.5-5m5.2 1.2c3.7 1.1 7.5.3 7.5-4m36.6-57.4c.3 6.3-10.4 11.1-15.3 7.7m36-7.7c.6 5 5.9 5.8 10.2 4.8 4.5-1.1 6.2-3.4 7.7-6.9"/><path stroke="#000" stroke-linecap="round" stroke-linejoin="round" stroke-width="3.174" d="M210.4 91.3c12.5 13.5 31.4-9.9 14-17.8m-21.1 36c1.7 5.7 2.5 11.4 4.6 16.9 1.6-3.5 2.1-7.5 2.9-11.4"/><path stroke="#000" stroke-linecap="round" stroke-linejoin="round" stroke-width="3.174" d="M209.5 110.1c1.1 15 19.7 8 12.7-4.6m-51.7 10.9c-2.5 9.4-5.4 18.8-7.7 28.2 6.7-1.5 14-6.4 20.4-9.9"/><path stroke="#000" stroke-linecap="round" stroke-linejoin="round" stroke-width="3.174" d="M180.2 125.6c-3 11.7 11.6 12.4 19.1 7.2"/><path stroke="#000" stroke-linecap="round" stroke-linejoin="round" stroke-width="3.174" d="M185.5 129.4c3.3 2.3 8.5 2.9 9.2-2.1m28.2-48.9c3.6 2.3 3.1 6.3-.2 9m-56-34.3c.3 2.6 2.4 3.5 5.2 3.1m28.7-26.3c-1.1 2.6-3.3 4.5-6.1 5.4m14 28.3c.1 1.8 1.3 2.7 3.1 2.5m-75.8-21.8c.3 5.6 0 13.2-6.5 15m2.9-29.6c.3 2.9 2.1 3.9 5 3.3M79.8 20.1c2 .1 3.9-.7 5-2.1M40.1 263.3c3.9-6.5 6.6-13.3 13.3-17.3.4 6 1.7 12.2 3.2 18m3.8.9c2.4-8.9 4.8-17.8 7-26.8 4.7 9.6 10.9 16.6 9.5 28m-70-10.6c2.9-2.9 5.5-7.8 7.1-12.1 1.6 5 2.5 8.8 1.8 13.7"/><path stroke="#000" stroke-linecap="round" stroke-linejoin="round" stroke-width="3.174" d="M8.2 261.4c7.8-6.6 12.7-4.6 15.5 5.6m119-117.4c7.2 2.8 12.1 8.1 19 1m-2.3 11.3c7.1 2.2 18-1.6 14-10.9m-11.5 6.6c2.3-.4 3.9-1.8 4.6-4m-21.5 5.6c2.1.4 4.3.6 6.5.8m3.7 32c-4.8-7.7-11-23.2-19.6-27.2m-6.5 20.3c-.8-6.4-16.7-13.9-23.6-15.7m21.9 2.1c-3.6-1-7.4-3-9.6-6.3m71.7 79.7c-1.2-3.6-3.1-7.5-4-11.3m-2.9-5.2c-.3-2.3-.9-4.4-1.8-6.4"/><path stroke="#000" stroke-linecap="round" stroke-linejoin="round" stroke-width="3.174" d="M186.1 206.5c-9.3-.6-17.8 7.7-20.3 16.2 8.5-.2 18.5 1 25-5.8M84.2 192.5c1.8-2.9 4.6-5.3 7.1-7.7M88.6 195c-3.7 4.8-3.5 9.9-2.3 15.6m124.5 43.5c-2.6-6.9 6.5-13.4 5.4-21.3"/><path stroke="#000" stroke-linecap="round" stroke-linejoin="round" stroke-width="3.174" d="M211 235.5c2 1.3 2.9 3.8 2.5 6.7 1.9-2.1 4.1-2.8 6.9-2.9m-28.6-27c4.3-1.8 9.6-2.2 12.7 2.1"/><path stroke="#000" stroke-linecap="round" stroke-linejoin="round" stroke-width="3.174" d="M200.3 206.6c-1.7 2-2.3 3.6-4.9 4.4 2.5 1.5 2 3.2 2.9 5.4m-37.8 29.5.3 4.5c-2.8.3-7.1.1-9.9.1-.1.8 0 1.7 0 2.5-2.9.1-5.7.3-8.5.4-.5-4.3-.3-8.7-.7-13.1l13.6-2.4m-9.9.7c-1-3.6-1.5-7.9-4.4-10.7m-1.9-4.5c-8-5.2-8.7-23.2-18.8-25.3m26.6 29.4c-2.1-1.6-4.7-9.3-7.1-12.5m-24.9-24.8c-1-3.1-4.9-5.9-7.7-7m25.3 5.9c-.6 1.8-.1 3.4 1.5 4.6m18.1-17.6c2 1.9 4.4 5.2 5.2 8.4m46.9-58.2c-4.9.5-5.1 8.3-3.8 13.4"/><path stroke="#000" stroke-linecap="round" stroke-linejoin="round" stroke-width="3.174" d="M202 138.9c-7.9 2.6-6.3 13.7 1.7 12 6.6-1.4 8.7-9.8 7.3-15.3m-24 1.1c-2.3 2.1-2 6.8.5 9.9m29.5-13.2c12.2 4.9 13.3-18.8 9.3-25.1"/><path stroke="#000" stroke-linecap="round" stroke-linejoin="round" stroke-width="3.174" d="M184.1 157.5c6.3.9 10.2-3.1 13.3-8.1m-6.6-3.3c-3 .2-4.5 2-4.4 5m30.1-107.5c-2.7 2.6-2.8 7.2 1 8.9M156.1 122c2.2 2.5 5.5 3.1 8.7 2.3"/><path fill="#000" d="M68.1 265.4c.8-4.2 2.5-8.3 2.1-12.8l-2.1 12.8Z"/><path stroke="#000" stroke-linecap="round" stroke-linejoin="round" stroke-width="2.645" d="M68.1 265.4c.8-4.2 2.5-8.3 2.1-12.8"/><path stroke="#000" stroke-linecap="round" stroke-linejoin="round" stroke-width="2.645" d="M66.6 257.5c.4 1.6 1.1 3.3 1.6 4.9 1.6-.9 3.8-2 5.1-3.4m-25.4 7c-.3-2.8.3-6.2 1.8-8.9m-13.4 6.4c-1.1-4.2.3-9.5 2.3-13.7"/><path stroke="#000" stroke-linecap="round" stroke-linejoin="round" stroke-width="2.645" d="M33.3 253.9c1.2 1.8 2.1 3.6 2.7 5.6.9-1.2 2.8-2.1 3.6-3.3m-14.7-24.1c-2.2-4.4-1.3-11.5-6.1-15"/><path stroke="#000" stroke-linecap="round" stroke-linejoin="round" stroke-width="2.645" d="M19.1 222.5c1.5 1.2 3.3 2.6 4.6 4.1 0-1.5 1-2.6 1.2-3.8"/><path stroke="#000" stroke-linecap="round" stroke-linejoin="round" stroke-width="3.174" d="M153.2 265.1c4.8-5.3 8.8-9.4 15.5-12.4-2.6 4.2-2.7 9.3-2.1 14m56.8-22.6c-1.3-1.5-.8-14-.8-18.6 2.5 6.8 6 11.9 7.1 19.4m-2.3 21.9c-.2-8.4 1.3-19.4 5.8-26.6 2.7 9.1 7.1 17.2 8.3 26.8"/><path stroke="#000" stroke-linecap="round" stroke-linejoin="round" stroke-width="3.174" d="M239.6 258.9c0-4.3-.4-9 .5-13.2 5 5 6.5 11.8 8.6 18M198 228.1c-.4-1.8-1.5-3.7-3-3.8m8.3 16.2c6.6-3-1.5-11.5 3.6-14.9m1-14.5v-2.3m4 3.8c.6-.5 1.2-1.2 1.6-1.8m-.3 7.4c.7.3 1.4.5 2.2.5M211 222c-.1 1.1 0 2.1.3 3.1m-5.1-28.6c.7-.5 1.3-1.3 1.7-2.1m.5 7.4c.3.6 1 1.1 1.7 1.2m-12-1.7c-.3.8-1 1.6-1.8 2.1"/><path stroke="#000" stroke-linecap="round" stroke-linejoin="round" stroke-width="2.645" d="M167.2 205.2c-1.2 2.6-1.5 6.3 1.3 7.3 3.6 1.3 4.3-1.3 5.2-3.9m-12.9-14.9c-2.3.5-4.2 1.6-3.9 4.1.3 2.4 3 3.3 5 2.5m2.2-19.7c-2-.7-4.3-.5-5.6 1.1-1.9 2.3 0 5.5 2.5 6.3"/><path stroke="#000" stroke-linecap="round" stroke-linejoin="round" stroke-width="2.645" d="M181.7 206.5c-.4-.5-.8-1.1-1.1-1.9-1.8 5-7.9 6.3-9.4.5-5.4 1.7-12.3-2.7-8-8.2-3.3-3.5-5.1-9.4 1-10.1-1.4-4.6.4-13.1 6.2-8.7 1.6-5.3 7.5-5.4 10-.5 4.9-4.5 9.2-.6 8.4 5.3 9.3-.6 1.3 9 1.4 9 3.5 2.9 5.1 9.9-2.3 8.6.8 2.4 0 4.8-1.5 6.1"/><path fill="#000" d="M169.4 195.9c7.1 12.9 24-6.2 12.6-12.7-8.4-4.9-17.1 4.7-12.6 12.7Z"/><path stroke="#000" stroke-miterlimit="10" stroke-width="1.988" d="M169.4 195.9c7.1 12.9 24-6.2 12.6-12.7-8.4-4.9-17.1 4.7-12.6 12.7Z"/><path stroke="#000" stroke-linecap="round" stroke-linejoin="round" stroke-width="2.645" d="M186.7 212.3c-3.8-1.5-10.5 2.6-13.2 5.6"/><path stroke="#000" stroke-linecap="round" stroke-linejoin="round" stroke-width="2.645" d="M179.9 210.1c1.3.5 2.8 1.2 4.4 1.7-1.7.9-2.6 3.1-2.5 5"/><path stroke="#000" stroke-linecap="round" stroke-linejoin="round" stroke-width="3.174" d="M201.6 196c-.7 2.1.3 4.3 1.8 5.8m15.9 19.6c1.3-1.4 1.8-3.3 1.5-5.2m10.5 15.1c.2 1 .1 2.5-.2 3.7"/><path fill="#000" d="M234 266.8c-.5-4 0-8.5-1-12.7l1 12.7Z"/><path stroke="#000" stroke-linecap="round" stroke-linejoin="round" stroke-width="2.645" d="M234 266.8c-.5-4 0-8.5-1-12.7"/><path stroke="#000" stroke-linecap="round" stroke-linejoin="round" stroke-width="2.645" d="M231 260c1.2 1.1 2.2 3.6 3 5.3.5-1.7 1.2-3.2 2.5-4.4"/><path stroke="#000" stroke-linecap="round" stroke-linejoin="round" stroke-width="3.174" d="M128.9 237.3c-.9-4.6-3.3-10-5.8-14.1 3.4-.3 8.3 1.2 10.2 4.2m-17.8-15c2.7 0 5.5-.3 8.2-.2m-1.8 6.7c1.7-.2 3.6-.8 5.3-1.2m-14.5-14.1c1.7-.4 3.7-.8 5.4-1.2M16 92.9c2-.2 3.9.5 5.6 1.6"/><path stroke="#000" stroke-linecap="round" stroke-linejoin="round" stroke-width="3.174" d="M12.5 83.4c-1.9 9.3 10.7 11.7 17.6 8.1m-.3-5.8c.5 5 .9 10.3 1.2 15.3 4.1-3.4 8.1-7.3 12.7-9.8m129.7 29.4c1.4 4.7 7.8 6 11.6 3.9"/><path stroke="#000" stroke-linecap="round" stroke-linejoin="round" stroke-width="3.175" d="M395.2 64.7c4.6-10.9 20.7-18 30.4-9.4-6.8 1.6-12.2 2.8-16.8 6.5"/><path stroke="#000" stroke-linecap="round" stroke-linejoin="round" stroke-width="3.175" d="M389.8 69.8c3.6-8.2 21.9-10.1 29.3-5.5-10.1 2.1-22.7 6.3-26.8 17.1"/><path stroke="#000" stroke-linecap="round" stroke-linejoin="round" stroke-width="3.175" d="M390.9 55.6c3.9-9.6 24.4-14.3 34-7.3-11.6-2.1-23.7 8.4-30.5 16.6m-91.9 17.6c-4.3-2.1-7.7-3-13.2-2.7-7.1.3-19.3 2.4-24.9 10.7 9.3-3.3 17.8-5 28-1.3m11.9 12.2c-4.5-5.9-15.7-5.1-21.5-1.7 4.7 1.3 9.5 2.4 12.4 6.5"/><path stroke="#000" stroke-linecap="round" stroke-linejoin="round" stroke-width="3.175" d="M319.1 98.1c-3.2-3.5-7.2-6.3-11.8-8-9.9-3.7-19.5.8-28.6 4.9 14.7-6.7 26.4 2 31.4 15.3m6.6-32c-4.4-3.1-9.4-5.1-15.5-6.8-9.8-2.7-19.1.3-26.7 5.4 6.5-2.2 15.1-1.4 21.7 1.4 8 3.4 11.7 10.9 19.8 13.6"/><path stroke="#000" stroke-linecap="round" stroke-linejoin="round" stroke-width="3.175" d="M337.1 61.3c-1.5-1.4-3.2-2.5-5.1-3.3.2 1.8-.3 3.7.1 5.4-3.9-6.2-13.4-9.1-20.2-10.2-.3 10.3 4 22.1 7.2 31.8-1.7-.4-3.7.5-5.4 0 2.9 8.5 8.9 23.7 19.1 26"/><path stroke="#000" stroke-linecap="round" stroke-linejoin="round" stroke-width="3.175" d="M313.8 67.8c-6.9-15.3-23.8-16.3-34.3-12.4 11.8 2 18.6 7.1 24.6 17.1m-2.4 159.8c11.2 0 22.4.4 33.6.4 4.9 0 13 .3 17.9-.2m-101.3-32.1c-1 10.3.3 22.4.4 33.1 7.3.7 14.7.5 22.2.1m79.8-32.1c-5.5 1-11.1.3-16.6.1-10.8-.5-23.1-2-33.9-2.4m-.6-87.6c6.2-.1 12.5-.2 19-.2 22.9-.2 46-.3 68.9.3 9.2.2 18.8-.4 28 .9m-145.7 31.3c-6.7.1-13.6.2-20.5.2l.3-32.9c7.2.3 14.2.4 21.1.5M421.9 143c-17.9 1.6-37.6-.5-55.6-.1-22.1.4-43 .6-64 .8"/><path stroke="#000" stroke-linecap="round" stroke-linejoin="round" stroke-width="3.175" d="M273.5 128.2c-4.7 0-8.6 0-13.3-.4m47.7 1.7c-2.1.4-3.3.4-5.4.4m-.8 42.9c45 1.2 106.9 2.6 118 1.8m-146.3-30.5c-6.9 0-13.7.1-20.5.1-2.1 0 .6 24.9.7 27.3 0 0 7 .7 19.4 1.1m146.7-27.9c-38.4-1.1-78-1.1-117.2-.9"/><path stroke="#000" stroke-linecap="round" stroke-linejoin="round" stroke-width="3.175" d="M273.4 153.1c-4.2.2-8.4-.2-12.4-1.8m55.3-.8c-3.7 1-8.6.7-13.7.5m-.9 48.9c16.6.5 33.3 1.7 49.8-.1m-78.7-27.7c-7.1 0-13.2.1-20.3.1-1.2 0 .4 24.9.4 27.3 2.8 1.3 9 0 11.9 0h8.3m1.4 33.8c-7.6 0-14.3.2-22 .3-1.2 0 .3 29 .3 31.5 0 0 8.4-.2 21.4-.3m76.2-30.2c-16.3-.8-31.3-1.1-47.6-1.2"/><path stroke="#000" stroke-linecap="round" stroke-linejoin="round" stroke-width="3.175" d="M302.8 267.8c-1.5-30.9-.8-61.9-1.1-92.9-.2-23.2.3-46.4 1.1-69.6-9.4 1.5-19.3-.3-28.8-.1.5 14.2-.6 28.6-.7 42.8-.1 26.3.5 52.5 1 78.8.3 13.8.6 27.5.6 41.3"/><path stroke="#000" stroke-linecap="round" stroke-linejoin="round" stroke-width="3.175" d="M296.1 106.7c-1.6 7.1-1 16.8-1.2 24.1m-5.3-10c-.2 7.2-1.9 11.8.9 18.7 2.3 5.7 2.1 10.3 1.8 16.5m3.7-19.7c2.6 8.4.5 19.3.2 28m-5-2.8c.4 1.9.6 4.9-.4 6.9m-3-21.4c-.6 5.8-2.9 11.1-2.9 17.1 0 6.3 3.8 12.1 2.7 18.2m-7.1-33c9-10.4-1.1-24.2 5.9-35.1m-7-7.9c1.2 3.4.8 7.9-.8 11.3m.4 13.6c0 3.2 0 7.5-1 11.1m1.2 12.8c-2.2 5.9-1.5 12 0 17.9m1.4 5.8c-.6 4.6.8 8.9-.1 13.5m15.3-20.8c.8 8.9 1.5 23.6-2.1 31.7m-6.9-14.6c-.2 1.4-.2 2.9 0 4.3m6.2 15.3c-4.5 3.7-3.9-7.7-3.5-9.5 1.2-7.1 3.2-13.3 2.9-20.6m-8.5 24.6c-1.9 7-.2 10 2.8 15.7 2.9 5.5 2.3 12.7 1.5 18.6m-1.2 4.6c-.3 4-2.8 7.9-2.8 11.7 0 3.8 4.2 6.6 2.5 10.5m3.2-13.2c-1.5 3.6.2 10.2 4.4 5.1 2.8-3.4-1.4-8.7-2-12.3-.5-2.8-.2-5.8-.1-8.7m.3-20.2c-.5 8.6 4.7 14.9 5.5 22.7.2 1.4 0 3-.1 4.4m.4-33.2c-.4 2.8-1.8 5.9-.1 8.5m-6.5 50.2c.7-3.3 4.9-4.3 5.2-7.9m-17.3 8.9c2.2-7.7-1.8-15.4 1.2-23.2m-.2-6.6c3-3 2.4-10.1 1.6-14m-2.8-24.2c-.5 4.4-1.4 8.8-.6 13.1.4 1.9 1.3 3.4 1.5 5.4m9.8-111.7c.1 1.8.4 4 .3 5.6"/><path fill="#000" d="M300.2 124c0 2.3-1.9 4.2-4.2 4.2-2.3 0-4.2-1.9-4.2-4.2 0-2.3 1.9-4.2 4.2-4.2 2.3 0 4.2 1.9 4.2 4.2Zm-14.2 0c0 2.3-1.9 4.2-4.2 4.2-2.3 0-4.2-1.9-4.2-4.2 0-2.3 1.9-4.2 4.2-4.2 2.3 0 4.2 1.9 4.2 4.2Z"/><path stroke="#000" stroke-linecap="round" stroke-linejoin="round" stroke-width="3.175" d="M302.4 120.9c10.8 2.2 26.2 2.7 37 .2m-13.9 8.4c6.8.2 29-5.5 31.7.2m-9.4-8.3c7.5.1 13.7 1.2 20.7 1.5m-48.7 6.4c-1.9-.2-3.9.1-5.7.7m61.3-7.1c13.7 2.7 27.6-.8 41.2.9m-71.5 9c9.1.3 18.8 7.2 27.5.9m-9.6-3.5c9-3.2 15 .6 23.6 1.1m-19.4-14.8c2.6.5 5.6.7 8.4.4m2.6 19.3c12.9 1.8 24.8-2.6 37.5-2.2m-22.7-4c1.8.1 3.9 0 5.7-.2m-15-12.6c7.6 1.1 14.9.9 22.5.4m7.3.3h7.3m-84.3 17.8c-11.1 0-22.2 2.3-33.1 2m-30.6-1.5c-6.6-1.1-12.7 2-19.4 1.5m4.4-17.9c2.1.3 4.8.3 6.6 0m52.1-3.5c11.8 1.7 24-3.1 35.5.2m-20.2 40.6c11.6.5 21.9-10 33.1-5.6 8.3 3.3 10.4 9.6 21.1 7.3"/><path stroke="#000" stroke-linecap="round" stroke-linejoin="round" stroke-width="3.175" d="M306.8 163.5c14.8-3 25.8 1.8 40.1 3.9 4.7.7 13.4.3 15.2-5 2.3-6.7-5-10.5-9.6-5.2-5 5.8 4.1 8.6 4.8 2.3m5 10.4c4.9-7.5 14.4-3.1 22-2.4"/><path stroke="#000" stroke-linecap="round" stroke-linejoin="round" stroke-width="3.175" d="M344.5 159.5c-1.7 1.6-3.8 2.4-6.2 2.2m-27.3-5.9c5.1 4.2 18.4-5 25.6-6.4m52.6 17c7.8 2 15.9-.7 23.8-.9M376.4 150c6.2 3.9 21.8 4.2 28.9 2.6m-132.5 26.8c-4.8.6-9.8 2-14.3.4M392 158.9c6.3 2.8 12.8-2 19.2-2.2 3.8-.1 5.6 1.6 8.9 2.8m-4.7 10.5c2.7-.3 5.6-1.7 7.2-4.2m-12-14.5c3.4.2 6.4-.8 9.7.8m-167.4 5.8c5.2.2 10.3 3.4 15.4 2.5M262 166c3.7.7 6.7.1 10.2-.7m42.8 2.2c1.6-.4 3.2-.1 4.6.7m-17.8 16.1c7.9 3.9 17.4-4.8 24.3.5m-7 4.3c8-.5 12.9 7.5 20.6-.7m-13.6-10.3c8-2.2 16.7 5.3 25.1 4.8m-7.8 9.5c1.7-.4 3.5-.6 5.2-.8m-17.3-6.7c.9.2 1.9.2 2.8.1m-60.9 8.1c-5.3-.6-10.6-.2-15.8-.7m-4.8-6.1c4.4-2.2 10.4 2.4 15.2-.6m-6.8 23c2.8-1.3 8.5-1 12.5-.6m28.1 1.2c3.9.2 7.6 2.8 12 3 4.2.1 8.1-.7 12.2-1.6m-14.9 6.5c10.5 4.7 18.1-5.3 27.7-6.3 3.1-.3 8 .4 4.8 4.4m-6.4 1c1.8 8.5 11.4 1.1 15.1-1.5m-40.5 10.9c7.6-1.5 14.7-3.5 22.3-1.7 5.4 1.3 10.8 4 16.3 1.5m-2-16.5c.6-.2 2.5-.7 3.6-.9m-81.7 9.4c-6 1.3-12.2-3.2-17.6-.2m9.8 6.6c1.9-.9 5.9-1.3 8.5-1.3m-18.2 5.3c1.9-.6 4-.8 6-.3m14.9 19.7c-3.4-2.2-11.9-3.7-13.1 2-.5 2.3 1.6 6.1 3.5 7.2m-6.8-13.8c5.4-2.8 11-.1 16.4-3.4"/><path stroke="#000" stroke-linecap="round" stroke-linejoin="round" stroke-width="3.175" d="M266.5 251.7c3.4.1 4.2 3 8.2 2.6m27.6-10.1c6 3.6 13.1-2.4 19.6-.6m-4.8 5.8c7-.2 15.6 4.1 22.4-.4m-31.2 7.3c14.3-2 27.1 5.5 40.9.3m-4.7-8.4c1.7-.4 3.4-.7 5.1-.9m-21.1-5.6c7.7 1.9 15.2-4.1 22.4-.6"/><path fill="#000" d="M252.8 256.8c1.7.4 3.5 1.5 5.1 2.7l-5.1-2.7Z"/><path stroke="#000" stroke-linecap="round" stroke-linejoin="round" stroke-width="3.175" d="M252.8 256.8c1.7.4 3.5 1.5 5.1 2.7"/><path fill="#000" d="M251.8 205.9c.8-.2 2.9-.1 3.9 0h-3.9Z"/><path stroke="#000" stroke-linecap="round" stroke-linejoin="round" stroke-width="3.175" d="M251.8 205.9c.8-.2 2.9-.1 3.9 0m53.1-11c3.6-.1 7.3-.6 10.8.4"/><path fill="#000" d="M269.1 119.4c.7.4 2.3.4 3.4.1l-3.4-.1Z"/><path stroke="#000" stroke-linecap="round" stroke-linejoin="round" stroke-width="3.175" d="M269.1 119.4c.7.4 2.3.4 3.4.1"/><path fill="#000" d="M414.5 138.6c1.5.2 3-.1 4.3-.9l-4.3.9Z"/><path stroke="#000" stroke-linecap="round" stroke-linejoin="round" stroke-width="3.175" d="M414.5 138.6c1.5.2 3-.1 4.3-.9m-78.4-26.5c-5-2.6-6.5-10.9-7.6-15.9 1.7.8 3.5 1.9 4.9 3.3-.4-2.1-2.6-19.3-1.9-19.4.9-.2 3-.4 4.8.8-3.2-11.6-2.7-17-1.4-26.1 2.3 1.2 4.4 1.9 5.9 4.1.2-10.6 2.1-17.4 7.8-26.2 4.6 9.8 7.1 18.7 7.9 29.4 2-1.6 4.3-3.5 6.5-5 .1 3.8 0 7.6 0 11.3 1.1-.9 2.5-1.2 3.5-2.1.1 5.7.9 10.8-.8 16.2"/><path stroke="#000" stroke-linecap="round" stroke-linejoin="round" stroke-width="3.175" d="M360.8 55.5c2.5-6.7 7.6-14.9 15.1-16.4 1.5 3.3 1 6.9.6 10.5 6.1-5.7 13-10.8 20-15.4-.5 8.6-4.3 18.5-8.6 25.9 3.6-2 5.3-1.1 7.8-1.8-3.7 7.7-8.6 20.5-18.3 21.9m-41.9.5c-3.4-6.1-8.6-10.1-14.4-13.9"/><path stroke="#000" stroke-linecap="round" stroke-linejoin="round" stroke-width="3.175" d="M370.3 65.7c5-4.4 10.9-8.5 14.6-14.2m-32.1 3.8c-.2 13.3 3 28.2-.1 41.2-.7 3-1.9 6.1-1.8 9.1"/><path stroke="#000" stroke-linecap="round" stroke-linejoin="round" stroke-width="3.175" d="M346.1 67.6c2.7 2.3 5.2 2.1 7.1 5.3 1.3-2.5 3.8-4.9 6.3-6.3M324.4 78c1.7-1.7 5.3-2 7.8-2.3 0-2-.2-4 .5-5.9m40.4-17.1c-.2 3.6.5 7.3-.3 10.9 2-.7 4.8-1.2 7-.5m-32.2 18c2.5 1.1 5.1 2.3 7.5 3.5.3-2.5 3-5.4 5.3-6.4m41.1-7.5c3.6-2.8 11.8.5 16 2.4-6.1 0-12.3 4.4-16 9.1m-64-21.7c-.4-18.1-15.8-31.5-32.9-32.1m73.1 18.1c4.8-9.8 11.5-33.1-6.2-33.8"/><path stroke="#000" stroke-linecap="round" stroke-linejoin="round" stroke-width="3.175" d="M382.8 28.7c4.4-3.4 9.8-9.2 15.9-6.5m-79.6 9.6c-5.2-4.5 0-11.8 3.5-15.5m-60.7 21.5c7.1-4.5 15.5-2.7 22.6 4.3M319 31.9c-2.6-2.3-9.6 3-11.1 6.4m24.2 4.5c-1.8-6.5 3.2-14.9 8.4-18.7m-10.1 18.1c-4.2-1.1-9.3 2.3-12.3 5m64.4-19.4c-4.8-4.6-14.4-1.1-16.6 4.5m27.7 18.4c.5-9.4 15.1-18.2 23.5-20.1"/><path stroke="#000" stroke-linecap="round" stroke-linejoin="round" stroke-width="3.175" d="M408.8 33.7c3.7-2.3 5.7-9.4.9-11.5m-.6 12c3.6-.6 7.8.1 10.4 2.6m-86.6-3.2c.1-1.7-1.6-3.3-3.4-2.9m4.3 2.9c1.5-1.5 4.3-3.2 5.7-.7M318.3 24c1.4-.9 3.5-1.3 4.5.3m13.8 3c-.4-1.6-1.7-3-3.3-3.4m4.3 3.5c1.7-.5 3.4-.1 4.9.8m-23 13c0 1.3.8 2.4 2.1 2.8m.3.4c-.7 1.1-.6 3.4.2 4.9M340 22.8c1.7-7.9 4.8-12.7 12.1-16.7-1 4.5-3.6 17.6-10 17.4"/><path stroke="#000" stroke-linecap="round" stroke-linejoin="round" stroke-width="3.175" d="M342.9 23.7c9.8 2.5 15.1-7.6 12.4-15.3-.3-1-.5-1.9-.9-2.8m-50.2 21.6c1.2-12.4-16-18-25.2-19.2 4.8 6.8 12 16.3 20.6 18.9 1.2.4 2.6.4 3.8.4"/><path stroke="#000" stroke-linecap="round" stroke-linejoin="round" stroke-width="3.175" d="M304.2 27.7c-7.8 3.8-20.3 4.7-26.1-3.3-3.4-4.7-3.1-11.3-.4-16.4"/><path stroke="#000" stroke-linecap="round" stroke-linejoin="round" stroke-width="2.646" d="M323.1 15.7c.7-1.2 1.5-2.7 1.6-3 .8-2.2 1.1-5 .4-7.3-5.3 2.6-6.1 6.7-3.2 11.8.1.1.6-.6 1.2-1.5Z"/><path stroke="#000" stroke-linecap="round" stroke-linejoin="round" stroke-width="2.646" d="M323.4 16.5c2.6.1 6.3-2.1 6.8-4.8.5-2.8-2.4-5.2-4.9-5.8 0 1.2-.1 2.8.1 3.9"/><path stroke="#000" stroke-linecap="round" stroke-linejoin="round" stroke-width="3.175" d="M307.3 37.3c-7-.1-11.9 3.8-15.1 9.9 5.1-.3 13.1-4 15.4-9"/><path stroke="#000" stroke-linecap="round" stroke-linejoin="round" stroke-width="3.175" d="M292.2 47.6c6.2 7 22.6-1.7 17.7-10.8"/><path fill="#000" d="M339.5 38.3c2.5 3 6.8-.8 4.6-3.8s-7 .9-4.6 3.8Z"/><path stroke="#000" stroke-linecap="round" stroke-linejoin="round" stroke-width="2.628" d="M339.5 38.3c2.5 3 6.8-.8 4.6-3.8s-7 .9-4.6 3.8Z"/><path stroke="#000" stroke-linecap="round" stroke-linejoin="round" stroke-width="3.175" d="M372.6 21.4c-.2 1.9.7 3.6 2.5 4.4m16.3-3.3c2-2.2 1.9-5.8.6-8.4m-.6 8.6c1.7.8 2.9 2.4 2.1 4.3m24 2.5c-.1-8 7.9-10.7 13.8-7.8-3.7 4.6-7.3 6.1-12.8 7.3"/><path stroke="#000" stroke-linecap="round" stroke-linejoin="round" stroke-width="3.175" d="M417.9 30.2c5.4 5.5 19-.6 14.7-8.3m-43-8.5c3.8 1.3 5.7-2.5 3-5.2-4.4-4.4-9.1 3.1-3 5.2Z"/><path fill="#000" d="M367 15.8c5.8-.7 4.9-8.6-.2-9.3-6.8-.9-8.2 10.4.2 9.3Z"/><path stroke="#000" stroke-linecap="round" stroke-linejoin="round" stroke-width="2" d="M367 15.8c5.8-.7 4.9-8.6-.2-9.3-6.8-.9-8.2 10.4.2 9.3Z"/><path stroke="#000" stroke-linecap="round" stroke-linejoin="round" stroke-width="3.175" d="M361.2 38.7c4.9 2.2 7.2-6.3 2.5-7.2-3.5-.6-6.1 5.5-2.5 7.2Z"/><path fill="#000" d="M398.2 28c.5 1.5 1.5 2.6 3 2.9 8.9 1.8 4.4-13.5-1.1-10.1-2.1 1.5-2.7 4.8-1.9 7.2Z"/><path stroke="#000" stroke-linecap="round" stroke-linejoin="round" stroke-width="2" d="M398.2 28c.5 1.5 1.5 2.6 3 2.9 8.9 1.8 4.4-13.5-1.1-10.1-2.1 1.5-2.7 4.8-1.9 7.2Z"/><path stroke="#000" stroke-linecap="round" stroke-linejoin="round" stroke-width="3.175" d="M271 35.4c-2.2-1.5-3.9-4.4-3.1-7.1"/><path stroke="#000" stroke-linecap="round" stroke-linejoin="round" stroke-width="3.175" d="M272.2 35.5c-4.4-.7-5.8 5.1-5.5 8m-11.3 2.7c4.3 1 9.4-6.4 5-9.3-2.9-1.9-6.9 1.2-7.8 4.1-.8 2.2.4 4.6 2.8 5.2Zm18-3.8c.7-2.4 3.6-4.3 6-3.7m-2.3-6.1c-.4 2-.3 4.2 1.4 5.4m39-13.1c.2-3.4-1.2-7.6-5.1-7.7m17 32.5c2-1.4 4.7-1.6 6.2.5-.5-2.2 1.1-4.5 3.4-5m-14.4-15.9c-.6 1.6-.3 4.4.3 6.3-1.7-.5-3.8.5-4.3 1.6m-11.2-13.6c0 1.8.8 4 2 5.5-1.7.6-3.2 1.5-4.5 2.8m67.7-6c-1.9.7-2.4 3.7-2.1 5.7m5.1-.1c2.1 1.6 3.5 4.1 3.5 6.7.3-2.7 3.3-5.5 6.2-5.2m-11.8-14.7c1.9-.1 3.9-.6 5.6.5-1.6-2.7-1.9-6.4-1.8-9.5"/><path stroke="#000" stroke-linecap="round" stroke-linejoin="round" stroke-width="2.646" d="M422.5 76.5c3.2 0 4.1-4.7 1.2-5.9-4.2-1.7-6.2 5.9-1.2 5.9Zm6.1-24.2c-3.5.8-2.6 7.4.9 7.1 3.8-.4 3-8-.9-7.1Zm-.5-2.3c3.1-.1 3.8-4.6.9-5.5-3.7-1.2-6.1 5.7-.9 5.5Z"/><path fill="#000" d="M275.8 58.7c3.6-.2 4.2-4.3 1.1-6-4.9-2.7-7.6 6.3-1.1 6Z"/><path stroke="#000" stroke-linecap="round" stroke-linejoin="round" stroke-width="2.628" d="M275.8 58.7c3.6-.2 4.2-4.3 1.1-6-4.9-2.7-7.6 6.3-1.1 6Z"/><path stroke="#000" stroke-linecap="round" stroke-linejoin="round" stroke-width="2.646" d="M272.6 80.1c2.6-1.2 1.4-5.2-1.2-5.6-5.2-.9-3.4 7.8 1.2 5.6Z"/><path stroke="#000" stroke-linecap="round" stroke-linejoin="round" stroke-width="3.175" d="M408.3 13.6c1 2.8 7 2 9.2 1.1 3.5-1.4 5.5-5.3 9.4-5.7"/><path stroke="#000" stroke-linecap="round" stroke-linejoin="round" stroke-width="3.175" d="M418.7 8.6c.1 2.3.5 4.7-1 6.6 2.4-1 5.2-1 7.7-.2m1.5-9.3c-1.9 2.7 1.6 4.8 3.9 3.5m-19.2 1.4c-.4-5-8.8-8.8-11.2-3.1-2.9 6.7 7.4 12 10.7 5.8.4-.9.5-1.8.5-2.7Zm-51.9 9.7c.5 4.3 6.3 2.9 8.5 1.2M335.1 6.6c2.3 3.4 1.7 8.8-.9 11.8m-29.6 8.7c2.2-3.6 0-9.3-2-12.5-2-3.1-9-7.6-6.1-11.9m6 26c-4.3 2.7-8.7 5.1-13.9 5.1-7.3 0-9.9-4.6-14.6-9.2-2.1-2-4.8-4.1-7.4-4.3"/><path stroke="#000" stroke-linecap="round" stroke-linejoin="round" stroke-width="2.646" d="M312.1 10.6c3.1-1.4.2-4.8-2.1-5-5.5-.5-2.2 6.9 2.1 5Z"/><path stroke="#000" stroke-linecap="round" stroke-linejoin="round" stroke-width="3.175" d="M284.3 65.5c-5.2 1.9-10.3-.6-14.8-3.4-5-3.2-8.9-5.7-14.8-7-.5 2.3 3 7.8 4.5 9.5 2 2.3 4.6 3.6 7.5 4.2 6 1.3 13.7 0 18.6-3.7-.3.1-.6.2-1 .4Zm-22.9 44.9c-3.6-10 13-17.8 18.1-9 .5.8.6 2.1.8 3"/><path stroke="#000" stroke-linecap="round" stroke-linejoin="round" stroke-width="3.175" d="M265.5 98.8c-1.4-4-6.1-2.4-8.3.1m9.3-.7c-.5-1.5-.3-3.4 1.3-4.2m-7-69.2c5.8-.5 6.9-9 1.4-10.9-8.9-3.2-10.4 11.7-1.4 10.9Z"/><path stroke="#000" stroke-linecap="round" stroke-linejoin="round" stroke-width="2.646" d="M271 21.8c-2.5-3.5-2-7.9-1.4-12.1"/><path fill="#000" d="M259.7 80.3c3.8-.2 4.4-6 1.5-7.8-5.6-3.5-7.6 8.1-1.5 7.8Z"/><path stroke="#000" stroke-linecap="round" stroke-linejoin="round" stroke-width="2.628" d="M259.7 80.3c3.8-.2 4.4-6 1.5-7.8-5.6-3.5-7.6 8.1-1.5 7.8Z"/><path stroke="#000" stroke-linecap="round" stroke-linejoin="round" stroke-width="2.646" d="M260 89.4c2.4-.8 1.4-4.5-.6-5.1-4.5-1.3-3.7 6.5.6 5.1Zm40.8-29.6c3.9 3 8.6 6.8 12.3 14.8m108.7-13.3c1.5 2.5 5.2 4 7.7 1.9"/><path stroke="#000" stroke-linecap="round" stroke-linejoin="round" stroke-width="3.175" d="M400.3 40.5c4.4-1.6 7.2-2.7 12 .2m11.3-2.9c1.5 1.8 5.1 1.5 7.1 0m-14 41.3c3.9 4 10.4 3.3 12.8-2m-1.1-8.9c.8 1 1.2 2.2 1.2 3.4m-68.1-48.4c-2.5.5-4.1 2.5-3.6 5m-11.3 60.1c1.6 3.7 4.1 6.9 4.9 11.2 1.5-2 3.9-3.9 6.4-4"/><path fill="#000" d="M443 17.8c0-5.4 4.3-9.7 9.8-9.7 5.4 0 9.8 4.3 9.8 9.7 0 5.4-4.3 9.8-9.8 9.8-5.5 0-9.8-4.4-9.8-9.8Zm17 0c0-4.3-3-7.2-7.2-7.2s-7.2 2.9-7.2 7.2c0 4.3 3 7.2 7.2 7.2s7.2-2.9 7.2-7.2Zm-2.7 5.1h-2.5l-2.3-4.3h-1.6v4.3h-2.2V12.7h5c2.2 0 3.5.7 3.5 3.1 0 1.8-1 2.6-2.3 2.8l2.4 4.3Zm-4.1-6.3c1.1 0 2 0 2-1.1 0-.9-.9-.9-2-.9h-2.3v2h2.3Z"/></svg>